<svg xmlns="http://www.w3.org/2000/svg" width="34" height="34" viewBox="0 0 34 34" fill="none"><circle cx="17" cy="17" r="17" fill="#0D2F54"></circle><path d="M10.5678 11.5972C11.6754 11.5972 12.5734 10.6993 12.5734 9.59158C12.5734 8.48388 11.6754 7.58592 10.5678 7.58592C9.46005 7.58592 8.56208 8.48388 8.56208 9.59158C8.56208 10.6993 9.46005 11.5972 10.5678 11.5972Z" fill="white"></path><path d="M14.4671 13.1171V24.2445H17.922V18.7418C17.922 17.2898 18.1952 15.8836 19.9955 15.8836C21.7711 15.8836 21.7931 17.5437 21.7931 18.8334V24.2454H25.2498V18.1432C25.2498 15.1457 24.6045 12.8421 21.101 12.8421C19.4189 12.8421 18.2914 13.7652 17.8303 14.6388H17.7836V13.1171H14.4671V13.1171ZM8.83691 13.1171H12.2973V24.2445H8.83691V13.1171Z" fill="white"></path></svg>